<?xml version="1.0" encoding="UTF-8" standalone="no"?>
<!-- Created with Inkscape (http://www.inkscape.org/) -->

<svg
   xmlns:dc="http://purl.org/dc/elements/1.1/"
   xmlns:cc="http://creativecommons.org/ns#"
   xmlns:rdf="http://www.w3.org/1999/02/22-rdf-syntax-ns#"
   xmlns:svg="http://www.w3.org/2000/svg"
   xmlns="http://www.w3.org/2000/svg"
   xmlns:sodipodi="http://sodipodi.sourceforge.net/DTD/sodipodi-0.dtd"
   xmlns:inkscape="http://www.inkscape.org/namespaces/inkscape"
   width="210mm"
   height="297mm"
   viewBox="0 0 210 297"
   version="1.1"
   id="svg8"
   inkscape:version="0.92.3 (2405546, 2018-03-11)"
   sodipodi:docname="Box_Protected.svg">
  <defs
     id="defs2" />
  <sodipodi:namedview
     id="base"
     pagecolor="#ffffff"
     bordercolor="#666666"
     borderopacity="1.0"
     inkscape:pageopacity="0.0"
     inkscape:pageshadow="2"
     inkscape:zoom="0.70710678"
     inkscape:cx="119.57332"
     inkscape:cy="684.58416"
     inkscape:document-units="mm"
     inkscape:current-layer="layer1"
     showgrid="false"
     inkscape:window-width="1920"
     inkscape:window-height="1001"
     inkscape:window-x="-9"
     inkscape:window-y="-9"
     inkscape:window-maximized="1" />
  <metadata
     id="metadata5">
    <rdf:RDF>
      <cc:Work
         rdf:about="">
        <dc:format>image/svg+xml</dc:format>
        <dc:type
           rdf:resource="http://purl.org/dc/dcmitype/StillImage" />
        <dc:title></dc:title>
      </cc:Work>
    </rdf:RDF>
  </metadata>
  <g
     inkscape:label="Layer 1"
     inkscape:groupmode="layer"
     id="layer1">
    <path
       style="fill:none;stroke:#000000;stroke-width:1.06500006;stroke-linecap:butt;stroke-linejoin:miter;stroke-miterlimit:4;stroke-dasharray:none;stroke-opacity:1"
       d="m 160.31007,123.30321 -58.00925,7.72327 c -2.897845,0.8963 -39.745564,-21.71584 -40.177109,-24.08453 -0.586831,-0.51641 53.713129,-11.338007 56.061869,-9.807927 l 42.12449,26.169187"
       id="path4529"
       inkscape:connector-curvature="0"
       sodipodi:nodetypes="ccccc" />
    <path
       style="fill:none;stroke:#000000;stroke-width:1.06500006;stroke-linecap:butt;stroke-linejoin:miter;stroke-miterlimit:4;stroke-dasharray:none;stroke-opacity:1"
       d="m 62.123711,106.94195 -0.771054,47.01871 c -0.212831,2.40393 39.146283,26.57359 40.760833,25.96976 l -0.122,-48.86014"
       id="path4531"
       inkscape:connector-curvature="0"
       sodipodi:nodetypes="cccc" />
    <path
       style="fill:none;stroke:#000000;stroke-width:1.06500006;stroke-linecap:butt;stroke-linejoin:miter;stroke-miterlimit:4;stroke-dasharray:none;stroke-opacity:1"
       d="m 102.11349,179.93042 c 1.5699,1.93605 38.10885,-5.43414 57.09897,-8.27983 l 1.09761,-48.34738"
       id="path4539"
       inkscape:connector-curvature="0"
       sodipodi:nodetypes="ccc" />
    <path
       style="fill:none;stroke:#000000;stroke-width:0.26458332px;stroke-linecap:butt;stroke-linejoin:miter;stroke-opacity:1"
       d="M 89.164582,101.86979 131.23333,127.1375"
       id="path4541"
       inkscape:connector-curvature="0" />
    <path
       style="fill:none;stroke:#000000;stroke-width:1.06500006;stroke-linecap:butt;stroke-linejoin:miter;stroke-miterlimit:4;stroke-dasharray:none;stroke-opacity:1"
       d="m 73.313371,106.11417 c 0,0 4.381084,-9.535961 9.00179,-13.535034 11.710367,-10.134973 36.266079,-22.016995 41.959029,-19.217543 2.98219,1.466465 6.57818,19.30988 7.28183,29.372557 0.25272,3.61433 -1.12178,10.81144 -1.12178,10.81144"
       id="path4579"
       inkscape:connector-curvature="0"
       sodipodi:nodetypes="cssac" />
    <path
       style="fill:none;stroke:#000000;stroke-width:1.06500006;stroke-linecap:butt;stroke-linejoin:miter;stroke-miterlimit:4;stroke-dasharray:none;stroke-opacity:1"
       d="m 49.109332,96.838578 c 0,0 2.984049,0.425923 6.249383,0.905036 2.318975,0.340255 5.641765,2.132042 7.551434,3.490916 3.067341,2.18264 9.130305,4.19094 11.338666,4.87964 1.472501,0.45922 11.385786,-0.0813 15.571343,-0.0719 6.52784,0.0147 16.214502,0.77112 26.829312,3.80774 2.62006,0.74952 13.78477,3.69556 13.78477,3.69556 0,0 6.55743,-0.43953 8.61702,-0.50048 9.91376,-0.29335 20.7866,2.57127 29.17788,5.8284 3.12218,1.2119 2.66252,0.76985 2.66252,0.76985 0,0 -0.39825,-8.63761 -3.7952,-14.69938 -6.61842,-11.810417 -25.47631,-27.362449 -42.52807,-31.686271 -18.3044,-4.641456 -39.734539,-2.437202 -56.251615,6.715975 -9.368317,5.19159 -19.207443,16.864894 -19.207443,16.864894"
       id="path4581"
       inkscape:connector-curvature="0"
       sodipodi:nodetypes="cssssscsscsssc" />
    <path
       style="fill:none;stroke:#000000;stroke-width:1.16499996;stroke-linecap:butt;stroke-linejoin:miter;stroke-miterlimit:4;stroke-dasharray:none;stroke-opacity:1"
       d="m 104.4679,107.207 c -6.370689,26.23712 -9.490493,38.69013 -12.981544,50.22485"
       id="path4583"
       inkscape:connector-curvature="0"
       sodipodi:nodetypes="cc" />
    <path
       style="fill:none;stroke:#000000;stroke-width:2.665;stroke-linecap:round;stroke-linejoin:round;stroke-miterlimit:4;stroke-dasharray:none;stroke-opacity:1"
       d="m 91.790375,157.0109 c 0,0 -2.425278,6.82373 -8.070263,2.94665 -3.195782,-2.19493 -2.139599,-9.24346 -2.139599,-9.24346"
       id="path4585"
       inkscape:connector-curvature="0"
       sodipodi:nodetypes="csc" />
    <path
       style="opacity:1;fill:#ffffff;fill-opacity:1;fill-rule:evenodd;stroke:#ffffff;stroke-width:1.00600004;stroke-linecap:square;stroke-linejoin:round;stroke-miterlimit:4;stroke-dasharray:none;stroke-dashoffset:0;stroke-opacity:1;paint-order:normal"
       d="m 121.25713,110.37411 c -15.27538,-4.18902 -20.12336,-4.85014 -35.566016,-4.85014 -6.163384,0 -11.206154,-0.0691 -11.206154,-0.15359 0,-0.32044 3.1637,-5.73585 4.534236,-7.761408 0.787172,-1.163386 2.235838,-2.89153 3.219254,-3.840318 8.454745,-8.157022 30.32766,-19.391405 38.86726,-19.96303 2.58424,-0.172984 2.67512,-0.149111 3.41428,0.896766 2.17195,3.073244 4.84737,14.310701 6.09519,25.60148 0.46998,4.25244 -0.2403,12.39499 -1.07317,12.30293 -0.13204,-0.0146 -3.86024,-1.0193 -8.28488,-2.23269 z"
       id="path4666"
       inkscape:connector-curvature="0" />
    <path
       style="opacity:1;fill:#ffffff;fill-opacity:1;fill-rule:evenodd;stroke:#ffffff;stroke-width:0.4;stroke-linecap:butt;stroke-linejoin:round;stroke-miterlimit:4;stroke-dasharray:none;stroke-dashoffset:0;stroke-opacity:1;paint-order:normal"
       d="m 68.685211,103.33107 c -1.852178,-0.78184 -4.770527,-2.28358 -6.485217,-3.337189 -3.651311,-2.24359 -4.706729,-2.631156 -8.798888,-3.231104 l -3.050585,-0.447244 4.869989,-4.846394 c 2.678494,-2.665516 6.358131,-5.963264 8.176972,-7.328326 11.614277,-8.716656 30.147508,-13.57448 46.961618,-12.309308 8.17144,0.614854 8.23282,0.64744 3.90097,2.070933 -9.93794,3.265723 -23.645623,10.827102 -31.365662,17.301808 -2.84276,2.384187 -6.059953,6.592509 -8.295135,10.850634 -0.811908,1.54673 -1.665173,2.70945 -1.9852,2.7052 -0.308698,-0.004 -2.076686,-0.64716 -3.928862,-1.42901 z"
       id="path4668"
       inkscape:connector-curvature="0" />
    <path
       style="opacity:1;fill:#ffffff;fill-opacity:1;fill-rule:evenodd;stroke:none;stroke-width:1.00599992;stroke-linecap:square;stroke-linejoin:round;stroke-miterlimit:4;stroke-dasharray:0, 11.06599986;stroke-dashoffset:0;stroke-opacity:1;paint-order:normal"
       d="m 166.69912,117.65111 c -10.68548,-3.98379 -20.91416,-5.70021 -30.439,-5.10781 -2.57744,0.1603 -4.75164,0.22608 -4.83155,0.14617 -0.0799,-0.0799 0.004,-1.06673 0.18655,-2.19293 0.64063,-3.95294 0.65962,-8.30796 0.0566,-12.971185 -1.07135,-8.284186 -3.23803,-17.831872 -4.89886,-21.587301 l -0.68301,-1.54441 0.72549,0.176662 c 1.56861,0.381963 6.96261,2.65529 9.76921,4.117282 7.50522,3.90956 14.30177,8.862414 20.43141,14.889001 6.58781,6.477051 10.01913,11.491321 11.62577,16.988991 0.78878,2.69909 1.75358,8.36259 1.41424,8.3018 -0.1,-0.0179 -1.61055,-0.56523 -3.3568,-1.21627 z"
       id="path4683"
       inkscape:connector-curvature="0" />
  </g>
</svg>
