<?xml version="1.0" encoding="UTF-8" standalone="no"?>
<!-- Created with Inkscape (http://www.inkscape.org/) -->

<svg
   xmlns:dc="http://purl.org/dc/elements/1.1/"
   xmlns:cc="http://creativecommons.org/ns#"
   xmlns:rdf="http://www.w3.org/1999/02/22-rdf-syntax-ns#"
   xmlns:svg="http://www.w3.org/2000/svg"
   xmlns="http://www.w3.org/2000/svg"
   xmlns:sodipodi="http://sodipodi.sourceforge.net/DTD/sodipodi-0.dtd"
   xmlns:inkscape="http://www.inkscape.org/namespaces/inkscape"
   width="210mm"
   height="297mm"
   viewBox="0 0 210 297"
   version="1.1"
   id="svg8"
   inkscape:version="0.92.3 (2405546, 2018-03-11)"
   sodipodi:docname="Box_Organized.svg">
  <defs
     id="defs2" />
  <sodipodi:namedview
     id="base"
     pagecolor="#ffffff"
     bordercolor="#666666"
     borderopacity="1.0"
     inkscape:pageopacity="0.0"
     inkscape:pageshadow="2"
     inkscape:zoom="0.5"
     inkscape:cx="1171.353"
     inkscape:cy="487.05605"
     inkscape:document-units="mm"
     inkscape:current-layer="layer1"
     showgrid="false"
     inkscape:window-width="1920"
     inkscape:window-height="1001"
     inkscape:window-x="-9"
     inkscape:window-y="-9"
     inkscape:window-maximized="1" />
  <metadata
     id="metadata5">
    <rdf:RDF>
      <cc:Work
         rdf:about="">
        <dc:format>image/svg+xml</dc:format>
        <dc:type
           rdf:resource="http://purl.org/dc/dcmitype/StillImage" />
        <dc:title></dc:title>
      </cc:Work>
    </rdf:RDF>
  </metadata>
  <g
     inkscape:label="Layer 1"
     inkscape:groupmode="layer"
     id="layer1">
    <path
       style="fill:none;stroke:#000000;stroke-width:1.06500006;stroke-linecap:butt;stroke-linejoin:miter;stroke-miterlimit:4;stroke-dasharray:none;stroke-opacity:1"
       d="m 134.91007,124.89071 -58.00925,7.72327 C 74.002975,133.51028 37.155256,110.89814 36.723711,108.52945 36.13688,108.01304 90.43684,97.191443 92.78558,98.721523 l 42.12449,26.169187"
       id="path4529"
       inkscape:connector-curvature="0"
       sodipodi:nodetypes="ccccc" />
    <path
       style="fill:none;stroke:#000000;stroke-width:1.06500006;stroke-linecap:butt;stroke-linejoin:miter;stroke-miterlimit:4;stroke-dasharray:none;stroke-opacity:1"
       d="m 36.723711,108.52945 -0.771054,47.01871 c -0.212831,2.40393 39.146283,26.57359 40.760833,25.96976 l -0.122,-48.86014"
       id="path4531"
       inkscape:connector-curvature="0"
       sodipodi:nodetypes="cccc" />
    <path
       style="fill:none;stroke:#000000;stroke-width:1.06500006;stroke-linecap:butt;stroke-linejoin:miter;stroke-miterlimit:4;stroke-dasharray:none;stroke-opacity:1"
       d="m 76.71349,181.51792 c 1.5699,1.93605 38.10885,-5.43414 57.09897,-8.27983 l 1.09761,-48.34738"
       id="path4539"
       inkscape:connector-curvature="0"
       sodipodi:nodetypes="ccc" />
    <path
       style="fill:none;stroke:#000000;stroke-width:0.26458332px;stroke-linecap:butt;stroke-linejoin:miter;stroke-opacity:1"
       d="M 63.764582,103.45729 105.83333,128.725"
       id="path4541"
       inkscape:connector-curvature="0" />
    <path
       style="fill:none;stroke:#000000;stroke-width:1.06500006;stroke-linecap:butt;stroke-linejoin:miter;stroke-miterlimit:4;stroke-dasharray:none;stroke-opacity:1"
       d="m 192.91932,117.16744 -58.00925,7.72327 c -2.89785,0.8963 -39.74557,-21.71584 -40.17711,-24.08453 -0.58683,-0.51641 53.71313,-11.338007 56.06187,-9.80793 l 42.12449,26.16919"
       id="path4529-6"
       inkscape:connector-curvature="0"
       sodipodi:nodetypes="ccccc" />
    <path
       style="fill:none;stroke:#000000;stroke-width:1.06500006;stroke-linecap:butt;stroke-linejoin:miter;stroke-miterlimit:4;stroke-dasharray:none;stroke-opacity:1"
       d="m 134.72274,173.79465 c 1.5699,1.93605 38.10885,-5.43414 57.09897,-8.27983 l 1.09761,-48.34738"
       id="path4539-2"
       inkscape:connector-curvature="0"
       sodipodi:nodetypes="ccc" />
    <path
       style="fill:none;stroke:#000000;stroke-width:0.26458332px;stroke-linecap:butt;stroke-linejoin:miter;stroke-opacity:1"
       d="m 121.77383,95.73402 42.06875,25.26771"
       id="path4541-4"
       inkscape:connector-curvature="0" />
    <path
       style="fill:none;stroke:#000000;stroke-width:1.06500006;stroke-linecap:butt;stroke-linejoin:miter;stroke-miterlimit:4;stroke-dasharray:none;stroke-opacity:1"
       d="m 164.94019,72.65435 -58.00925,7.72327 C 104.03309,81.27392 67.18537,58.66178 66.75383,56.29309 66.167,55.77668 120.46696,44.95509 122.8157,46.48517 l 42.12449,26.16918"
       id="path4529-7"
       inkscape:connector-curvature="0"
       sodipodi:nodetypes="ccccc" />
    <path
       style="fill:none;stroke:#000000;stroke-width:1.06500006;stroke-linecap:butt;stroke-linejoin:miter;stroke-miterlimit:4;stroke-dasharray:none;stroke-opacity:1"
       d="m 66.75383,56.29309 -0.77106,47.01871 c -0.21283,2.40393 39.14629,26.57359 40.76084,25.96976 l -0.122,-48.86014"
       id="path4531-1"
       inkscape:connector-curvature="0"
       sodipodi:nodetypes="cccc" />
    <path
       style="fill:none;stroke:#000000;stroke-width:1.06500006;stroke-linecap:butt;stroke-linejoin:miter;stroke-miterlimit:4;stroke-dasharray:none;stroke-opacity:1"
       d="m 106.74361,129.28156 c 1.5699,1.93605 38.10885,-5.43414 57.09897,-8.27983 l 1.09761,-48.34738"
       id="path4539-5"
       inkscape:connector-curvature="0"
       sodipodi:nodetypes="ccc" />
    <path
       style="fill:none;stroke:#000000;stroke-width:0.26458332px;stroke-linecap:butt;stroke-linejoin:miter;stroke-opacity:1"
       d="m 93.7947,51.22093 42.06875,25.26771"
       id="path4541-1"
       inkscape:connector-curvature="0" />
    <path
       style="opacity:1;fill:#ffffff;fill-opacity:1;fill-rule:evenodd;stroke:#000000;stroke-width:0.88671196;stroke-linecap:round;stroke-linejoin:round;stroke-miterlimit:4;stroke-dasharray:none;stroke-dashoffset:0;stroke-opacity:0;paint-order:normal"
       d="M 102.30869,126.41456 C 92.3811,121.08818 72.330866,108.24991 67.996489,104.44428 l -1.320245,-1.1592 0.234421,-16.293911 c 0.128932,-8.961654 0.335174,-19.098688 0.458338,-22.526746 l 0.223943,-6.232829 2.110132,1.60247 c 5.991572,4.550045 22.985812,14.841712 30.808582,18.657583 l 5.49945,2.682573 0.0196,23.47963 c 0.0108,12.91379 -0.1066,23.47681 -0.26096,23.47337 -0.15433,-0.003 -1.71186,-0.77414 -3.46115,-1.71266 z"
       id="path5629"
       inkscape:connector-curvature="0" />
    <path
       style="opacity:1;fill:#ffffff;fill-opacity:1;fill-rule:evenodd;stroke:#000000;stroke-width:0.88671196;stroke-linecap:round;stroke-linejoin:round;stroke-miterlimit:4;stroke-dasharray:none;stroke-dashoffset:0;stroke-opacity:0;paint-order:normal"
       d="m 107.44607,105.08348 c -0.1212,-13.144769 -0.18674,-23.933239 -0.1456,-23.974376 0.20162,-0.201623 56.53456,-7.568981 56.68955,-7.413996 0.21812,0.218133 -0.71512,46.277332 -0.9457,46.674192 -0.0897,0.15434 -0.532,0.28046 -0.98287,0.28026 -0.45091,-2.1e-4 -9.15464,1.42711 -19.3416,3.17179 -20.62356,3.53213 -27.36152,4.57047 -31.94439,4.92274 l -3.10896,0.23897 z"
       id="path5631"
       inkscape:connector-curvature="0" />
  </g>
</svg>
