
<svg xmlns="http://www.w3.org/2000/svg"  width="197mm" height="173mm" version="1.1" viewBox="0 0 197 173" >

<g transform="translate(0,-124)">
<path d="m122.81 223.77-69.611 9.2679c-3.4774 1.0756-47.695-26.059-48.213-28.901-0.7042-0.61969 64.456-13.606 67.274-11.77l50.549 31.403" fill="none" stroke="#000" stroke-width="1.998"/>
<path d="m4.9902 204.13-0.92526 56.422c-0.2554 2.8847 46.976 31.888 48.913 31.164l-0.1464-58.632" fill="none" stroke="#000" stroke-width="1.998"/>
<path d="m52.978 291.72c1.8839 2.3233 45.731-6.521 68.519-9.9358l1.3171-58.017" fill="none" stroke="#000" stroke-width="1.878"/>
<path d="m37.439 198.05 50.482 30.321" fill="none" stroke="#000" stroke-width=".3175px"/>
<path d="m192.42 214.5-69.611 9.2679c-3.4774 1.0756-47.695-26.059-48.213-28.901-0.7042-0.6197 64.456-13.606 67.274-11.77l50.549 31.403" fill="none" stroke="#000" stroke-width="1.878"/>
<path d="m122.59 282.45c1.8839 2.3233 45.731-6.521 68.519-9.9358l1.3171-58.017" fill="none" stroke="#000" stroke-width="1.878"/>
<path d="m107.05 188.78 50.482 30.321" fill="none" stroke="#000" stroke-width=".3175px"/>
<path d="m158.85 161.08-69.611 9.2679c-3.4774 1.0756-47.695-26.059-48.213-28.901-0.7042-0.61969 64.456-13.606 67.274-11.77l50.549 31.403" fill="none" stroke="#000" stroke-width="1.878"/>
<path d="m41.026 141.45-0.92527 56.422c-0.2554 2.8847 46.976 31.888 48.913 31.164l-0.1464-58.632" fill="none" stroke="#000" stroke-width="1.878"/>
<path d="m89.014 229.04c1.8839 2.3233 45.731-6.521 68.519-9.9358l1.3171-58.017" fill="none" stroke="#000" stroke-width="1.878"/>
<path d="m73.475 135.36 50.482 30.321" fill="none" stroke="#000" stroke-width=".3175px"/>
<path d="m83.692 225.59c-11.913-6.3916-35.973-21.798-41.175-26.364l-1.5843-1.391 0.2813-19.553c0.15472-10.754 0.40221-22.918 0.55-27.032l0.26873-7.4794 2.5322 1.923c7.1899 5.46 27.583 17.81 36.97 22.389l6.5993 3.2191 0.02352 28.176c0.01296 15.497-0.12792 28.172-0.31315 28.168-0.1852-4e-3 -2.0542-0.92896-4.1534-2.0552z" fill="#fff" fill-rule="evenodd" stroke-opacity="0" style="paint-order:normal"/>
<path d="m89.857 200c-0.14544-15.774-0.22409-28.72-0.17472-28.769 0.24194-0.24194 67.841-9.0828 68.027-8.8968 0.26175 0.26177-0.85814 55.533-1.1348 56.009-0.10764 0.18521-0.6384 0.33655-1.1794 0.33631-0.54109-2.5e-4 -10.986 1.7125-23.21 3.8062-24.748 4.2386-32.834 5.4846-38.333 5.9073l-3.7308 0.28676z" fill="#fff" fill-rule="evenodd" stroke-opacity="0" style="paint-order:normal"/>
</g>
</svg>
