
<svg xmlns="http://www.w3.org/2000/svg" width="206mm" height="190mm" version="1.1" viewBox="0 0 206 190" >

<g transform="translate(0,-107)">
<path d="m181.95 198.35-92.815 12.357c-0.86262 0.26682 1.2303 0.80986-2.951-0.55038m-5.3619-2.428c-17.054-8.2524-55.408-32.472-55.97-35.557-0.2047-0.18015 0.8107-0.82026 7.183-2.1922m17.279-4.2895c22.856-4.9208 62.298-11.125 65.237-9.211l37.026 22.973m8.8133 5.8088 21.56 13.089" fill="none" stroke="#000" stroke-linecap="round" stroke-width="2.504"/>
<path d="m24.853 172.17-1.2337 75.23c-0.34053 3.8463 62.634 42.518 65.217 41.552l-0.1952-78.176" fill="none" stroke="#000" stroke-width="2.504"/>
<path d="m88.837 288.95c2.5118 3.0977 60.974-8.6946 91.358-13.248l1.7562-77.356" fill="none" stroke="#000" stroke-width="2.504"/>
<path d="m68.119 164.05 21.497 12.912m3.3992 2.0638 42.414 25.453" fill="none" stroke="#000" stroke-width=".42333px"/>
<path d="m42.757 170.85s7.0097-15.258 14.403-21.656c18.737-16.216 58.026-35.227 67.134-30.748 4.7715 2.3463 10.525 30.896 11.651 46.996 0.40435 5.7829-1.7948 17.298-1.7948 17.298" fill="none" stroke="#000" stroke-width="1.704"/>
<path d="m4.0304 156s4.7745 0.68148 9.999 1.4481c3.7104 0.54441 9.0268 3.4113 12.082 5.5855 4.9077 3.4922 14.608 6.7055 18.142 7.8074 2.356 0.73475 18.217-0.13008 24.914-0.11504 10.445 0.0235 25.943 1.2338 42.927 6.0924 4.1921 1.1992 22.056 5.9129 22.056 5.9129s10.492-0.70324 13.787-0.80076c15.862-0.46936 33.259 4.114 46.685 9.3254 4.9955 1.939 4.26 1.2318 4.26 1.2318s-0.6372-13.82-6.0723-23.519c-10.589-18.897-40.762-43.78-68.045-50.698-29.287-7.4263-63.575-3.8995-90.003 10.746-14.989 8.3065-30.732 26.984-30.732 26.984" fill="none" stroke="#000" stroke-width="1.704"/>
<path d="m92.604 172.59c-10.193 41.979-15.185 61.904-20.77 80.36" fill="none" stroke="#000" stroke-width="2.504"/>
<path d="m72.32 252.28s-3.8804 10.918-12.912 4.7146c-5.1133-3.5119-3.4234-14.79-3.4234-14.79" fill="none" stroke="#000" stroke-linecap="round" stroke-linejoin="round" stroke-width="4.744"/>
<path d="m119.47 177.66c-24.441-6.7024-32.197-7.7602-56.906-7.7602-9.8614 0-17.93-0.11056-17.93-0.24574 0-0.51271 5.0619-9.1774 7.2548-12.418 1.2595-1.8614 3.5773-4.6264 5.1508-6.1445 13.528-13.051 48.524-31.026 62.188-31.941 4.1348-0.27678 4.2802-0.23858 5.4628 1.4348 3.4751 4.9172 7.7558 22.897 9.7523 40.962 0.75197 6.8039-0.38448 19.832-1.7171 19.685-0.21126-0.0234-6.1764-1.6309-13.256-3.5723z" fill="#fff" fill-rule="evenodd" stroke="#fff" stroke-linecap="square" stroke-linejoin="round" stroke-width=".8096" style="paint-order:normal"/>
<path d="m35.352 166.39c-2.9635-1.2509-7.6328-3.6537-10.376-5.3395-5.8421-3.5898-7.5308-4.2098-14.078-5.1698l-4.8809-0.71559 7.792-7.7542c4.2856-4.2648 10.173-9.5412 13.083-11.725 18.583-13.947 48.236-21.719 75.139-19.695 13.074 0.98376 13.173 1.0359 6.2416 3.3135-15.901 5.2252-37.833 17.323-50.185 27.683-4.5484 3.8147-9.6959 10.548-13.272 17.361-1.2991 2.4748-2.6643 4.3351-3.1763 4.3283-0.49392-6e-3 -3.3227-1.0355-6.2862-2.2864z" fill="#fff" fill-rule="evenodd" stroke="#fff" stroke-linejoin="round" stroke-width=".64" style="paint-order:normal"/>
<path d="m192.17 189.3c-17.097-6.3741-33.463-9.1203-48.702-8.1725-4.1239 0.25648-7.6026 0.36173-7.7305 0.23387-0.12784-0.12784 6e-3 -1.7068 0.29848-3.5087 1.025-6.3247 1.0554-13.293 0.0906-20.754-1.7142-13.255-5.1808-28.531-7.8382-34.54l-1.0928-2.471 1.1608 0.28266c2.5098 0.61114 11.14 4.2485 15.631 6.5876 12.008 6.2553 22.883 14.18 32.69 23.822 10.54 10.363 16.031 18.386 18.601 27.182 1.262 4.3185 2.8057 13.38 2.2628 13.283-0.16-0.0286-2.5769-0.90437-5.3709-1.946z" fill="#fff" fill-rule="evenodd" style="paint-order:normal"/>
</g>
</svg>
