
<svg xmlns="http://www.w3.org/2000/svg"  width="171mm" height="143mm" version="1.1" viewBox="0 0 171 143" >

<g transform="translate(0,-154)" fill="none" stroke="#000">
<path d="m165.13 201.42-92.815 12.357c-4.6366 1.4341-63.593-34.745-64.283-38.535-0.93893-0.82625 83.846-16.045 87.604-13.597l69.495 39.775" stroke-width="2.504"/>
<path d="m8.0315 175.24-1.2337 75.23c-0.34053 3.8463 62.634 42.518 65.217 41.552l-0.15984-62.679m-0.06544-4.3847 0.03008-11.112" stroke-width="2.504"/>
<path d="m72.015 292.02c2.5118 3.0977 60.974-8.6946 91.358-13.248l1.7562-77.356" stroke-width="2.504"/>
<path d="m51.297 167.13 67.31 40.428" stroke-width=".42333px"/>
<path d="m33.758 220.7 39.812 6.2862 42.507-5.0888" stroke-width=".904"/>
<path d="m73.571 226.99 12.883 15.332 21.622-2.2232 8.001-18.198" stroke-width=".904"/>
<path d="m114.59 225.97 14.182-1.4817" stroke-width=".42333px"/>
<path d="m164.49 215.5s-39.609 4.4122-39.843 5.0702c-0.19562 0.55075 12.584 13.234 12.584 13.234l18.469-2.1658 8.7901-16.139" stroke-width=".904"/>
<path d="m82.102 229.98 14.817-1.4967" stroke-width=".42333px"/>
<path d="m90.138 233.27 15.24-1.6934" stroke-width=".42333px"/>
<path d="m137.93 223.4 16.314-2.0954" stroke-width=".42333px"/>
<path d="m144.37 227.14 9.5789-1.6464" stroke-width=".42333px"/>
<path d="m120.57 232.98s13.448 21.321 12.259 22.752c-1.737 2.0894-8.0682-2e-3 -8.0682-2e-3" stroke-width=".904"/>
</g>
</svg>
