<?xml version="1.0" encoding="UTF-8" standalone="no"?>
<!-- Created with Inkscape (http://www.inkscape.org/) -->

<svg
   xmlns:dc="http://purl.org/dc/elements/1.1/"
   xmlns:cc="http://creativecommons.org/ns#"
   xmlns:rdf="http://www.w3.org/1999/02/22-rdf-syntax-ns#"
   xmlns:svg="http://www.w3.org/2000/svg"
   xmlns="http://www.w3.org/2000/svg"
   xmlns:sodipodi="http://sodipodi.sourceforge.net/DTD/sodipodi-0.dtd"
   xmlns:inkscape="http://www.inkscape.org/namespaces/inkscape"
   width="210mm"
   height="297mm"
   viewBox="0 0 210 297"
   version="1.1"
   id="svg8"
   inkscape:version="0.92.3 (2405546, 2018-03-11)"
   sodipodi:docname="Box_Secure.svg">
  <defs
     id="defs2" />
  <sodipodi:namedview
     id="base"
     pagecolor="#ffffff"
     bordercolor="#666666"
     borderopacity="1.0"
     inkscape:pageopacity="0.0"
     inkscape:pageshadow="2"
     inkscape:zoom="0.5"
     inkscape:cx="599.26402"
     inkscape:cy="675.5451"
     inkscape:document-units="mm"
     inkscape:current-layer="layer1"
     showgrid="false"
     inkscape:window-width="1920"
     inkscape:window-height="1001"
     inkscape:window-x="-9"
     inkscape:window-y="-9"
     inkscape:window-maximized="1" />
  <metadata
     id="metadata5">
    <rdf:RDF>
      <cc:Work
         rdf:about="">
        <dc:format>image/svg+xml</dc:format>
        <dc:type
           rdf:resource="http://purl.org/dc/dcmitype/StillImage" />
        <dc:title></dc:title>
      </cc:Work>
    </rdf:RDF>
  </metadata>
  <g
     inkscape:label="Layer 1"
     inkscape:groupmode="layer"
     id="layer1">
    <path
       style="fill:#000000;fill-opacity:1;stroke:#ffffff;stroke-width:0.05145251;stroke-linecap:butt;stroke-linejoin:miter;stroke-miterlimit:4;stroke-dasharray:none;stroke-opacity:1"
       d="m 53.281552,160.90713 1.127747,0.17328 0.238833,-0.30485 -0.0961,-1.21452 -0.666715,0.55675 z"
       id="path5546"
       inkscape:connector-curvature="0"
       sodipodi:nodetypes="cccccc" />
    <path
       style="fill:none;stroke:#000000;stroke-width:1.06500006;stroke-linecap:butt;stroke-linejoin:miter;stroke-miterlimit:4;stroke-dasharray:none;stroke-opacity:1"
       d="m 160.31007,123.30321 -58.00925,7.72327 c -2.897845,0.8963 -39.745564,-21.71584 -40.177109,-24.08453 -0.586831,-0.51641 53.713129,-11.338007 56.061869,-9.807927 l 42.12449,26.169187"
       id="path4529"
       inkscape:connector-curvature="0"
       sodipodi:nodetypes="ccccc" />
    <path
       style="fill:none;stroke:#000000;stroke-width:1.06500006;stroke-linecap:butt;stroke-linejoin:miter;stroke-miterlimit:4;stroke-dasharray:none;stroke-opacity:1"
       d="m 62.123711,106.94195 -0.771054,47.01871 c -0.212831,2.40393 39.146283,26.57359 40.760833,25.96976 l -0.122,-48.86014"
       id="path4531"
       inkscape:connector-curvature="0"
       sodipodi:nodetypes="cccc" />
    <path
       style="fill:none;stroke:#000000;stroke-width:1.06500006;stroke-linecap:butt;stroke-linejoin:miter;stroke-miterlimit:4;stroke-dasharray:none;stroke-opacity:1"
       d="m 102.11349,179.93042 c 1.5699,1.93605 38.10885,-5.43414 57.09897,-8.27983 l 1.09761,-48.34738"
       id="path4539"
       inkscape:connector-curvature="0"
       sodipodi:nodetypes="ccc" />
    <path
       style="fill:none;stroke:#000000;stroke-width:0.26458332px;stroke-linecap:butt;stroke-linejoin:miter;stroke-opacity:1"
       d="M 89.164582,101.86979 131.23333,127.1375"
       id="path4541"
       inkscape:connector-curvature="0" />
    <path
       inkscape:connector-curvature="0"
       style="fill:currentColor;stroke:#ffffff;stroke-width:0.36284149;stroke-miterlimit:4;stroke-dasharray:none;stroke-opacity:1"
       d="m 50.944601,165.99621 c -0.888201,-0.9317 -0.813384,-2.38689 0.16706,-3.24391 l 1.111625,-0.97169 c 0.002,-0.002 0.0039,-0.004 0.0065,-0.005 0.973936,-0.84663 2.486253,-0.79849 3.382695,0.1409 0.09477,0.0994 0.180137,0.20667 0.255143,0.32053 0.06547,0.0994 0.04801,0.22972 -0.04327,0.30954 l -0.348289,0.30443 c -0.138126,0.12073 -0.312694,0.17036 -0.478979,0.15771 -0.0797,-0.006 -0.151363,-0.0479 -0.193341,-0.11279 -0.02932,-0.0453 -0.0717,-0.10328 -0.127053,-0.16146 -0.420754,-0.44136 -1.139004,-0.4719 -1.605336,-0.0643 l -1.111464,0.97169 c -0.467133,0.40832 -0.500245,1.10352 -0.07145,1.54449 0.614933,-0.11399 -0.33144,1.30391 -0.943416,0.81005 z"
       id="path4798-5-2-2"
       sodipodi:nodetypes="cccccccccccccccc" />
    <path
       inkscape:connector-curvature="0"
       style="fill:currentColor;stroke:#ffffff;stroke-width:0.3719039;stroke-miterlimit:4;stroke-dasharray:none;stroke-opacity:1"
       d="m 57.956197,158.85872 c 0.899822,1.08613 0.88747,2.82747 0.0054,3.89694 -0.0016,0.002 -0.0038,0.004 -0.0054,0.007 l -1.012069,1.22034 c -0.892633,1.07635 -2.040306,1.41629 -3.049273,0.56291 -0.161079,-0.11001 -0.264192,-0.29194 -0.310931,-0.49288 -0.04674,-0.20096 -0.09982,-0.30366 -0.0354,-0.48975 0.06173,-0.17834 0.285347,-0.36794 0.373722,-0.53907 0.101297,-0.19615 0.328347,-0.0897 0.548217,0.0395 0.422053,0.51899 1.196397,0.40481 1.621696,-0.10798 l 1.012064,-1.22016 c 0.424573,-0.51195 0.422796,-1.33943 0,-1.84923 -0.05574,-0.0671 -0.216509,-0.34813 -0.260365,-0.38454 -0.06291,-0.0521 0.0029,0.092 0,0 -0.450941,-0.86964 -0.576679,-0.718 -0.450941,-0.86964 l 0.496263,-0.59344 c -0.454379,-0.71008 0.661525,0.42687 0.757942,0.50803 0.11042,0.093 0.213843,0.19747 0.309075,0.3123 z"
       id="path4798-7-2"
       sodipodi:nodetypes="cccccsssccccccccccc" />
    <path
       inkscape:connector-curvature="0"
       style="fill:currentColor;stroke:#ffffff;stroke-width:0.47827035;stroke-miterlimit:4;stroke-dasharray:none;stroke-opacity:1"
       d="m 55.556985,161.56169 c -1.012216,-1.15298 -1.012349,-3.0291 0,-4.18225 l 1.147801,-1.30744 c 0.002,-0.002 0.004,-0.005 0.0067,-0.007 1.005893,-1.13946 2.643713,-1.15543 3.665268,0.007 0.107996,0.12302 0.206273,0.25662 0.293712,0.39926 0.07632,0.12455 0.0647,0.29308 -0.02955,0.40048 l -0.359625,0.40962 c -0.142621,0.16246 -0.328603,0.2353 -0.509097,0.22759 -0.08649,-0.003 -0.166326,-0.0539 -0.215325,-0.13515 -0.03422,-0.0567 -0.08327,-0.12919 -0.146361,-0.2012 -0.479502,-0.54618 -1.257785,-0.54848 -1.739293,0 l -1.147627,1.30745 c -0.482336,0.54941 -0.479428,1.44557 0.0087,1.99082 0.658528,-0.17833 -0.285755,1.69469 -0.974931,1.09082 z"
       id="path4798-5-2-2-5"
       sodipodi:nodetypes="cccccccccccccccc" />
    <path
       inkscape:connector-curvature="0"
       style="fill:currentColor;stroke:#ffffff;stroke-width:0.43534341;stroke-miterlimit:4;stroke-dasharray:none;stroke-opacity:1"
       d="m 63.565311,152.84513 c 1.046225,1.17215 1.031864,3.05139 0.0062,4.20557 -0.002,0.003 -0.0044,0.006 -0.0062,0.009 l -1.162005,1.44228 c -1.037866,1.16158 -2.298613,1.40316 -3.471741,0.4822 -0.187286,-0.11872 -0.469217,-0.33297 -0.523561,-0.54982 -0.05433,-0.21686 -0.04239,-0.30981 0.0325,-0.51064 0.07177,-0.19247 0.331773,-0.39707 0.434529,-0.58175 0.117777,-0.21169 0.381768,-0.0968 0.637411,0.0426 0.490722,0.5601 1.405785,0.54426 1.900281,-0.01 l 1.161999,-1.42418 c 0.493651,-0.55251 0.491585,-1.44552 0,-1.99569 -0.0648,-0.0724 -0.130088,-0.12866 -0.18108,-0.16794 -0.07314,-0.0562 -0.118251,-0.14781 -0.121647,-0.24705 -0.0069,-0.20711 0.05865,-0.42051 0.20484,-0.58415 l 0.368678,-0.41265 c 0.09668,-0.10819 0.248335,-0.12148 0.360439,-0.0339 0.128385,0.10034 0.248635,0.21311 0.359362,0.33703 z"
       id="path4798-7-2-5"
       sodipodi:nodetypes="cccccsssccccccccccc" />
    <path
       style="fill:#000000;fill-opacity:1;stroke:#ffffff;stroke-width:0.05546991;stroke-linecap:butt;stroke-linejoin:miter;stroke-miterlimit:4;stroke-dasharray:none;stroke-opacity:1"
       d="m 58.920749,154.63522 1.315879,0.1726 0.278676,-0.30365 -0.112135,-1.20977 -0.777937,0.55458 z"
       id="path5546-1"
       inkscape:connector-curvature="0"
       sodipodi:nodetypes="cccccc" />
    <path
       style="fill:#000000;fill-opacity:1;stroke:#000000;stroke-width:0.26458332px;stroke-linecap:butt;stroke-linejoin:miter;stroke-opacity:1"
       d="m 52.19412,140.11361 c -0.13738,7.16845 0.04462,16.71853 0.03501,21.2899 l 0.562897,-0.38774 0.0094,-20.8968 4.680548,-0.016 0.008,-0.67774 -9.668986,-0.0351 0.01536,0.64197 z"
       id="path5563"
       inkscape:connector-curvature="0"
       sodipodi:nodetypes="ccccccccc" />
    <path
       style="fill:#000000;fill-opacity:1;stroke:#000000;stroke-width:0.26458332px;stroke-linecap:butt;stroke-linejoin:miter;stroke-opacity:1"
       d="m 52.255208,164.31146 0.529166,-0.41341 0.01654,2.72851 -0.537438,-0.008 z"
       id="path5565"
       inkscape:connector-curvature="0"
       sodipodi:nodetypes="ccccc" />
  </g>
</svg>
