
<svg xmlns="http://www.w3.org/2000/svg" width="7.25in" height="5.8in" version="1.1" viewBox="0 0 184.15 147.32" >

<g transform="translate(0 -149.68)">
<path d="m10.662 263.13 1.8044 0.27725 0.38213-0.48776-0.15376-1.9432-1.0667 0.8908z" stroke="#fff" stroke-width=".082324"/>
<path d="m181.91 202.96-92.815 12.357c-4.6365 1.4341-63.593-34.745-64.283-38.535-0.93893-0.82626 85.941-18.141 89.699-15.693l67.399 41.871" fill="none" stroke="#000" stroke-width="2.504"/>
<path d="m24.81 176.78-1.2337 75.23c-0.34053 3.8463 62.634 42.518 65.217 41.552l-0.1952-78.176" fill="none" stroke="#000" stroke-width="2.504"/>
<path d="m88.794 293.57c2.5118 3.0977 60.974-8.6946 91.358-13.248l1.7562-77.356" fill="none" stroke="#000" stroke-width="2.504"/>
<path d="m68.075 168.67 67.31 40.428" fill="none" stroke="#000" stroke-width=".42333px"/>
<path d="m6.9234 271.27c-1.4211-1.4907-1.3014-3.819 0.2673-5.1903l1.7786-1.5547c0.0032-3e-3 0.0062-6e-3 0.0104-8e-3 1.5583-1.3546 3.978-1.2776 5.4123 0.22544 0.15163 0.15904 0.28822 0.33067 0.40823 0.51285 0.10475 0.15904 0.07682 0.36755-0.06923 0.49526l-0.55726 0.48709c-0.221 0.19317-0.50031 0.27258-0.76637 0.25234-0.12752-0.01-0.24218-0.0766-0.30935-0.18047-0.04691-0.0725-0.11472-0.16525-0.20328-0.25833-0.67321-0.70618-1.8224-0.75504-2.5685-0.10288l-1.7783 1.5547c-0.74741 0.65331-0.80039 1.7656-0.11432 2.4712 0.98389-0.18238-0.5303 2.0863-1.5095 1.2961z" fill="currentColor" stroke="#fff" stroke-width=".58055"/>
<path d="m18.142 259.85c1.4397 1.7378 1.42 4.524 0.0086 6.2351-0.0026 3e-3 -0.0061 6e-3 -0.0086 0.0112l-1.6193 1.9525c-1.4282 1.7222-3.2645 2.2661-4.8788 0.90066-0.25773-0.17602-0.42271-0.4671-0.49749-0.78861-0.07478-0.32153-0.15971-0.48585-0.05664-0.7836 0.09877-0.28534 0.45656-0.5887 0.59796-0.86251 0.16208-0.31384 0.52536-0.14352 0.87715 0.0632 0.67528 0.83038 1.9142 0.6477 2.5947-0.17277l1.6193-1.9522c0.67932-0.81912 0.67647-2.1431 0-2.9588-0.08918-0.10736-0.34641-0.55701-0.41658-0.61527-0.10066-0.0834 0.0046 0.1472 0 0-0.7215-1.3914-0.92269-1.1488-0.7215-1.3914l0.79402-0.9495c-0.72701-1.1361 1.0584 0.68299 1.2127 0.81284 0.17667 0.1488 0.34215 0.31596 0.49452 0.49968z" fill="currentColor" stroke="#fff" stroke-width=".59505"/>
<path d="m14.303 264.18c-1.6195-1.8448-1.6198-4.8466 0-6.6916l1.8365-2.0919c0.0032-3e-3 0.0064-8e-3 0.01072-0.0112 1.6094-1.8231 4.2299-1.8487 5.8644 0.0112 0.17279 0.19684 0.33004 0.4106 0.46994 0.63882 0.12211 0.19928 0.10352 0.46893-0.04728 0.64077l-0.5754 0.65539c-0.22819 0.25994-0.52576 0.37648-0.81456 0.36414-0.13838-5e-3 -0.26612-0.0862-0.34452-0.21624-0.05475-0.0907-0.13323-0.2067-0.23418-0.32192-0.7672-0.87388-2.0125-0.87756-2.7829 0l-1.8362 2.0919c-0.77174 0.87906-0.76708 2.3129 0.01392 3.1853 1.0536-0.28533-0.45721 2.7115-1.5599 1.7453z" fill="currentColor" stroke="#fff" stroke-width=".76523"/>
<path d="m27.117 250.23c1.674 1.8754 1.651 4.8822 0.0099 6.7289-0.0032 5e-3 -7e-3 0.01-0.0099 0.0144l-1.8592 2.3076c-1.6606 1.8585-3.6778 2.2451-5.5548 0.77152-0.29966-0.18995-0.75075-0.53275-0.8377-0.87971-0.08693-0.34698-0.06782-0.4957 0.052-0.81702 0.11483-0.30796 0.53084-0.63532 0.69525-0.9308 0.18844-0.33871 0.61083-0.15488 1.0199 0.0682 0.78516 0.89616 2.2493 0.87081 3.0404-0.016l1.8592-2.2787c0.78984-0.88402 0.78654-2.3128 0-3.1931-0.10368-0.11584-0.20814-0.20585-0.28973-0.2687-0.11702-0.0899-0.1892-0.2365-0.19464-0.39528-0.01104-0.33138 0.09384-0.67282 0.32774-0.93464l0.58988-0.66024c0.15469-0.1731 0.39734-0.19437 0.5767-0.0542 0.20542 0.16054 0.39782 0.34098 0.57498 0.53925z" fill="currentColor" stroke="#fff" stroke-width=".69655"/>
<path d="m19.685 253.09 2.1054 0.27616 0.44588-0.48584-0.17942-1.9356-1.2447 0.88733z" stroke="#fff" stroke-width=".088752"/>
<path d="m8.9226 229.86c-0.21981 11.47 0.07139 26.75 0.05602 34.064l0.90064-0.62038 0.01504-33.435 7.4889-0.0256 0.0128-1.0844-15.47-0.0562 0.02458 1.0272z" stroke="#000" stroke-width="1.224"/>
<path d="m9.0203 268.58 0.84667-0.66146 0.02646 4.3656-0.8599-0.0128z" stroke="#000" stroke-width="1.064"/>
</g>
</svg>
