<?xml version="1.0" encoding="UTF-8"?>
<svg width="1.5in" height="1.5in" viewBox="0 0 144 144" xmlns="http://www.w3.org/2000/svg">
<path d="m72.1 85.166h-15.839v15.439h15.839z" fill="#7ce8fe" stroke-width="2.9863"/>
<path d="m83.038 64.582h-26.777v15.438h31.677v-15.438z" fill="#3ec7e3" stroke-width="2.9863"/>
<path d="m103.78 43.997h-47.516v15.439h47.516z" fill="#00a2c7" stroke-width="2.9863"/>
<path d="m50.98 64.582h-15.839v15.438h15.839z" fill="#cc1423" stroke-width="2.9863"/>
<path d="m24.387 45.417v52.239l50.307 31.344 50.307-31.344v-52.239l-50.307-31.344z" fill="none" stroke="#000" stroke-linejoin="round" stroke-width="11.462"/>
<path d="m52.499 109.75-22.202-14.053v-46.475l22.02-13.941c12.111-7.6677 22.185-13.941 22.388-13.94 0.20254 6.15e-4 10.291 6.2841 22.418 13.963l22.05 13.962v46.386l-21.849 13.843c-12.017 7.6134-22.023 13.947-22.235 14.075-0.21604 0.12969-10.186-5.9698-22.589-13.82zm19.623-16.91 0.09071-7.8569h-15.895v15.895l15.714-0.1814zm-20.873-20.529v-7.9413h-16.221v15.883h16.221zm36.834-0.0034v-7.9447l-31.934 0.17565-0.09129 7.4265c-0.05021 4.0846-0.01696 7.6201 0.07388 7.8569 0.13053 0.34015 3.4981 0.43041 16.058 0.43041h15.893v-7.9446zm15.883-20.613v-7.9436l-47.817 0.1735-0.09129 7.4265c-0.05021 4.0846-0.01696 7.6201 0.07388 7.8569 0.13161 0.34296 5.0077 0.43041 24 0.43041h23.835z" fill-rule="evenodd" stroke="#0a0a0a" stroke-dashoffset="563.38" stroke-linecap="round" stroke-linejoin="round" stroke-opacity=".99558" stroke-width="3.9044" style="paint-order:markers fill stroke"/>
</svg>
