
<svg xmlns="http://www.w3.org/2000/svg" width="210mm" height="297mm" version="1.1" viewBox="0 0 210 297">

<g fill="none" stroke="#000">
<path d="m160.31 123.3-58.009 7.7233c-2.8978 0.8963-39.746-21.716-40.177-24.085-0.58683-0.51641 52.404-10.028 54.752-8.4983l43.434 24.86" stroke-width="1.065"/>
<path d="m62.124 106.94-0.77105 47.019c-0.21283 2.4039 39.146 26.574 40.761 25.97l-0.122-48.86" stroke-width="1.065"/>
<path d="m102.11 179.93c1.5699 1.936 38.109-5.4341 57.099-8.2798l1.0976-48.347" stroke-width="1.065"/>
<path d="m89.165 101.87 42.069 25.268" stroke-width=".26458px"/>
<path d="m78.203 135.36 24.883 3.9289 26.567-3.1805" stroke-width=".565"/>
<path d="m103.09 139.28 8.052 9.5826 13.514-1.3895 5.0006-11.374" stroke-width=".565"/>
<path d="m128.72 138.65 8.8635-0.92604" stroke-width=".26458px"/>
<path d="m159.91 132.1s-24.756 2.7576-24.902 3.1689c-0.12226 0.34422 7.8651 8.2715 7.8651 8.2715l11.543-1.3536 5.4938-10.087" stroke-width=".565"/>
<path d="m108.42 141.16 9.2609-0.93545" stroke-width=".26458px"/>
<path d="m113.44 143.21 9.525-1.0583" stroke-width=".26458px"/>
<path d="m143.31 137.04 10.196-1.3096" stroke-width=".26458px"/>
<path d="m147.33 139.38 5.9868-1.029" stroke-width=".26458px"/>
<path d="m132.46 143.03s8.4053 13.326 7.6619 14.22c-1.0856 1.3059-5.0427-1e-3 -5.0427-1e-3" stroke-width=".565"/>
</g>
</svg>
