
<svg xmlns="http://www.w3.org/2000/svg" width="210mm" height="297mm" version="1.1" viewBox="0 0 210 297">
<g>
<path d="m53.282 160.91 1.1277 0.17328 0.23883-0.30485-0.0961-1.2145-0.66672 0.55675z" stroke="#fff" stroke-width=".051453"/>
<path d="m160.31 123.3-58.009 7.7233c-2.8978 0.8963-39.746-21.716-40.177-24.085-0.58683-0.51641 53.713-11.338 56.062-9.8079l42.124 26.169" fill="none" stroke="#000" stroke-width="1.065"/>
<path d="m62.124 106.94-0.77105 47.019c-0.21283 2.4039 39.146 26.574 40.761 25.97l-0.122-48.86" fill="none" stroke="#000" stroke-width="1.065"/>
<path d="m102.11 179.93c1.5699 1.936 38.109-5.4341 57.099-8.2798l1.0976-48.347" fill="none" stroke="#000" stroke-width="1.065"/>
<path d="m89.165 101.87 42.069 25.268" fill="none" stroke="#000" stroke-width=".26458px"/>
<path d="m50.945 166c-0.8882-0.9317-0.81338-2.3869 0.16706-3.2439l1.1116-0.97169c2e-3 -2e-3 0.0039-4e-3 0.0065-5e-3 0.97394-0.84663 2.4863-0.79849 3.3827 0.1409 0.09477 0.0994 0.18014 0.20667 0.25514 0.32053 0.06547 0.0994 0.04801 0.22972-0.04327 0.30954l-0.34829 0.30443c-0.13813 0.12073-0.31269 0.17036-0.47898 0.15771-0.0797-6e-3 -0.15136-0.0479-0.19334-0.11279-0.02932-0.0453-0.0717-0.10328-0.12705-0.16146-0.42075-0.44136-1.139-0.4719-1.6053-0.0643l-1.1115 0.97169c-0.46713 0.40832-0.50024 1.1035-0.07145 1.5445 0.61493-0.11399-0.33144 1.3039-0.94342 0.81005z" fill="currentColor" stroke="#fff" stroke-width=".36284"/>
<path d="m57.956 158.86c0.89982 1.0861 0.88747 2.8275 0.0054 3.8969-0.0016 2e-3 -0.0038 4e-3 -0.0054 7e-3l-1.0121 1.2203c-0.89263 1.0764-2.0403 1.4163-3.0493 0.56291-0.16108-0.11001-0.26419-0.29194-0.31093-0.49288-0.04674-0.20096-0.09982-0.30366-0.0354-0.48975 0.06173-0.17834 0.28535-0.36794 0.37372-0.53907 0.1013-0.19615 0.32835-0.0897 0.54822 0.0395 0.42205 0.51899 1.1964 0.40481 1.6217-0.10798l1.0121-1.2202c0.42457-0.51195 0.4228-1.3394 0-1.8492-0.05574-0.0671-0.21651-0.34813-0.26036-0.38454-0.06291-0.0521 0.0029 0.092 0 0-0.45094-0.86964-0.57668-0.718-0.45094-0.86964l0.49626-0.59344c-0.45438-0.71008 0.66152 0.42687 0.75794 0.50803 0.11042 0.093 0.21384 0.19747 0.30908 0.3123z" fill="currentColor" stroke="#fff" stroke-width=".3719"/>
<path d="m55.557 161.56c-1.0122-1.153-1.0123-3.0291 0-4.1822l1.1478-1.3074c2e-3 -2e-3 4e-3 -5e-3 0.0067-7e-3 1.0059-1.1395 2.6437-1.1554 3.6653 7e-3 0.108 0.12302 0.20627 0.25662 0.29371 0.39926 0.07632 0.12455 0.0647 0.29308-0.02955 0.40048l-0.35962 0.40962c-0.14262 0.16246-0.3286 0.2353-0.5091 0.22759-0.08649-3e-3 -0.16633-0.0539-0.21532-0.13515-0.03422-0.0567-0.08327-0.12919-0.14636-0.2012-0.4795-0.54618-1.2578-0.54848-1.7393 0l-1.1476 1.3074c-0.48234 0.54941-0.47943 1.4456 0.0087 1.9908 0.65853-0.17833-0.28576 1.6947-0.97493 1.0908z" fill="currentColor" stroke="#fff" stroke-width=".47827"/>
<path d="m63.565 152.85c1.0462 1.1722 1.0319 3.0514 0.0062 4.2056-2e-3 3e-3 -0.0044 6e-3 -0.0062 9e-3l-1.162 1.4423c-1.0379 1.1616-2.2986 1.4032-3.4717 0.4822-0.18729-0.11872-0.46922-0.33297-0.52356-0.54982-0.05433-0.21686-0.04239-0.30981 0.0325-0.51064 0.07177-0.19247 0.33177-0.39707 0.43453-0.58175 0.11778-0.21169 0.38177-0.0968 0.63741 0.0426 0.49072 0.5601 1.4058 0.54426 1.9003-0.01l1.162-1.4242c0.49365-0.55251 0.49158-1.4455 0-1.9957-0.0648-0.0724-0.13009-0.12866-0.18108-0.16794-0.07314-0.0562-0.11825-0.14781-0.12165-0.24705-0.0069-0.20711 0.05865-0.42051 0.20484-0.58415l0.36868-0.41265c0.09668-0.10819 0.24834-0.12148 0.36044-0.0339 0.12838 0.10034 0.24864 0.21311 0.35936 0.33703z" fill="currentColor" stroke="#fff" stroke-width=".43534"/>
<path d="m58.921 154.64 1.3159 0.1726 0.27868-0.30365-0.11214-1.2098-0.77794 0.55458z" stroke="#fff" stroke-width=".05547"/>
<path d="m52.194 140.11c-0.13738 7.1684 0.04462 16.719 0.03501 21.29l0.5629-0.38774 0.0094-20.897 4.6805-0.016 8e-3 -0.67774-9.669-0.0351 0.01536 0.64197z" stroke="#000" stroke-width=".26458px"/>
<path d="m52.255 164.31 0.52917-0.41341 0.01654 2.7285-0.53744-8e-3z" stroke="#000" stroke-width=".26458px"/>
</g>
</svg>
